<svg width="13" height="20" viewBox="0 0 13 20" fill="none" xmlns="http://www.w3.org/2000/svg">
<path d="M12.0455 0.559917V0.557851C11.6904 0.200981 11.2079 0.000206612 10.7045 0H1.89669C0.850568 0.00340909 0.00340909 0.850568 0 1.89669V18.1012C0.000206612 18.6046 0.200982 19.0871 0.557851 19.4421C0.912345 19.7985 1.39406 19.9992 1.89669 20H10.7066C11.2092 19.9992 11.691 19.7985 12.0455 19.4421C12.4018 19.0877 12.6025 18.6059 12.6033 18.1033V1.89876C12.6025 1.39613 12.4018 0.914411 12.0455 0.559917ZM6.30165 18.7128C6.01865 18.7128 5.78926 18.4834 5.78926 18.2004C5.78926 17.9174 6.01865 17.688 6.30165 17.688C6.58466 17.688 6.81405 17.9174 6.81405 18.2004C6.81405 18.4834 6.58466 18.7128 6.30165 18.7128ZM11.0971 15.4959C11.0971 16.1805 10.5421 16.7355 9.85744 16.7355H2.7438C2.05914 16.7355 1.50413 16.1805 1.50413 15.4959V3.41942C1.50413 2.73476 2.05914 2.17975 2.7438 2.17975H9.8595C10.5442 2.17975 11.0992 2.73476 11.0992 3.41942L11.0971 15.4959Z" fill="white"/>
</svg>
