<svg width="20" height="15" viewBox="0 0 20 15" fill="none" xmlns="http://www.w3.org/2000/svg">
<path d="M19.8238 1.00488L13.758 7.03162L19.8238 13.0584C19.9334 12.8292 20 12.5758 20 12.3052V1.758C20 1.4874 19.9334 1.23407 19.8238 1.00488Z" fill="white"/>
<path d="M18.242 0H1.75702C1.48642 0 1.23309 0.0665259 1.00391 0.176178L8.75664 7.88985C9.44213 8.57534 10.5569 8.57534 11.2424 7.88985L18.9951 0.176178C18.7659 0.0665259 18.5126 0 18.242 0Z" fill="white"/>
<path d="M0.176178 1.00488C0.0665258 1.23407 0 1.4874 0 1.758V12.3052C0 12.5758 0.0665258 12.8292 0.176178 13.0584L6.24198 7.03162L0.176178 1.00488Z" fill="white"/>
<path d="M12.9293 7.85938L12.0709 8.71773C10.9287 9.85991 9.0702 9.85991 7.92802 8.71773L7.0697 7.85938L1.00391 13.8861C1.23309 13.9958 1.48642 14.0623 1.75702 14.0623H18.242C18.5126 14.0623 18.7659 13.9958 18.9951 13.8861L12.9293 7.85938Z" fill="white"/>
</svg>
